{
  "accessors": [
    {
      "bufferView": 2,
      "componentType": 5126,
      "count": 3234,
      "max": [
        11.337300300598145,
        11.24185562133789,
        28.127483367919922
      ],
      "min": [
        -11.33730411529541,
        -11.432748794555664,
        -8.901103973388672
      ],
      "type": "VEC3"
    },
    {
      "bufferView": 2,
      "byteOffset": 38808,
      "componentType": 5126,
      "count": 3234,
      "max": [
        1.0,
        0.9998729228973389,
        1.0
      ],
      "min": [
        -1.0,
        -0.9998729228973389,
        -1.0
      ],
      "type": "VEC3"
    },
    {
      "bufferView": 1,
      "componentType": 5126,
      "count": 3234,
      "max": [
        0.9888593554496765,
        0.9990234375
      ],
      "min": [
        0.0009765625,
        0.0009765625
      ],
      "type": "VEC2"
    },
    {
      "bufferView": 1,
      "byteOffset": 25872,
      "componentType": 5126,
      "count": 3234,
      "max": [
        0.9888593554496765,
        0.9990234375
      ],
      "min": [
        0.0009765625,
        0.0009765625
      ],
      "type": "VEC2"
    },
    {
      "bufferView": 1,
      "byteOffset": 51744,
      "componentType": 5126,
      "count": 3234,
      "max": [
        0.9888593554496765,
        0.9990234375
      ],
      "min": [
        0.0009765625,
        0.0009765625
      ],
      "type": "VEC2"
    },
    {
      "bufferView": 0,
      "componentType": 5125,
      "count": 13692,
      "type": "SCALAR"
    },
    {
      "bufferView": 2,
      "byteOffset": 77616,
      "componentType": 5126,
      "count": 43886,
      "max": [
        42.6347541809082,
        90.07675170898438,
        55.83782196044922
      ],
      "min": [
        -32.184730529785156,
        -58.832401275634766,
        -82.53353881835938
      ],
      "type": "VEC3"
    },
    {
      "bufferView": 2,
      "byteOffset": 604248,
      "componentType": 5126,
      "count": 43886,
      "max": [
        1.0,
        1.0,
        1.0
      ],
      "min": [
        -1.0,
        -1.0,
        -1.0
      ],
      "type": "VEC3"
    },
    {
      "bufferView": 1,
      "byteOffset": 77616,
      "componentType": 5126,
      "count": 43886,
      "max": [
        0.9928237199783325,
        0.99951171875
      ],
      "min": [
        0.00048828125,
        0.00048828125
      ],
      "type": "VEC2"
    },
    {
      "bufferView": 1,
      "byteOffset": 428704,
      "componentType": 5126,
      "count": 43886,
      "max": [
        0.9928237199783325,
        0.99951171875
      ],
      "min": [
        0.00048828125,
        0.00048828125
      ],
      "type": "VEC2"
    },
    {
      "bufferView": 1,
      "byteOffset": 779792,
      "componentType": 5126,
      "count": 43886,
      "max": [
        0.9928237199783325,
        0.99951171875
      ],
      "min": [
        0.00048828125,
        0.00048828125
      ],
      "type": "VEC2"
    },
    {
      "bufferView": 0,
      "byteOffset": 54768,
      "componentType": 5125,
      "count": 196794,
      "type": "SCALAR"
    },
    {
      "bufferView": 2,
      "byteOffset": 1130880,
      "componentType": 5126,
      "count": 18104,
      "max": [
        50.09727096557617,
        26.73999786376953,
        49.57844543457031
      ],
      "min": [
        -56.08887481689453,
        -7.975607872009277,
        -54.59817123413086
      ],
      "type": "VEC3"
    },
    {
      "bufferView": 2,
      "byteOffset": 1348128,
      "componentType": 5126,
      "count": 18104,
      "max": [
        0.9999963045120239,
        0.9999657869338989,
        0.9995790719985962
      ],
      "min": [
        -0.999995768070221,
        -0.9999824166297913,
        -0.999697744846344
      ],
      "type": "VEC3"
    },
    {
      "bufferView": 1,
      "byteOffset": 1130880,
      "componentType": 5126,
      "count": 18104,
      "max": [
        0.99755859375,
        0.997535228729248
      ],
      "min": [
        0.0024817700032144785,
        0.0026598572731018066
      ],
      "type": "VEC2"
    },
    {
      "bufferView": 1,
      "byteOffset": 1275712,
      "componentType": 5126,
      "count": 18104,
      "max": [
        0.99755859375,
        0.997535228729248
      ],
      "min": [
        0.0024817700032144785,
        0.0026598572731018066
      ],
      "type": "VEC2"
    },
    {
      "bufferView": 1,
      "byteOffset": 1420544,
      "componentType": 5126,
      "count": 18104,
      "max": [
        0.99755859375,
        0.997535228729248
      ],
      "min": [
        0.0024817700032144785,
        0.0026598572731018066
      ],
      "type": "VEC2"
    },
    {
      "bufferView": 0,
      "byteOffset": 841944,
      "componentType": 5125,
      "count": 69648,
      "type": "SCALAR"
    },
    {
      "bufferView": 2,
      "byteOffset": 1565376,
      "componentType": 5126,
      "count": 1949,
      "max": [
        26.878875732421875,
        19.313426971435547,
        59.39373779296875
      ],
      "min": [
        -38.057064056396484,
        -27.196393966674805,
        -55.430389404296875
      ],
      "type": "VEC3"
    },
    {
      "bufferView": 2,
      "byteOffset": 1588764,
      "componentType": 5126,
      "count": 1949,
      "max": [
        0.997473418712616,
        1.0,
        0.9977441430091858
      ],
      "min": [
        -0.9974735975265503,
        -1.0,
        -0.9978329539299011
      ],
      "type": "VEC3"
    },
    {
      "bufferView": 1,
      "byteOffset": 1565376,
      "componentType": 5126,
      "count": 1949,
      "max": [
        0.8965935111045837,
        0.99755859375
      ],
      "min": [
        0.00244140625,
        0.33539825677871704
      ],
      "type": "VEC2"
    },
    {
      "bufferView": 1,
      "byteOffset": 1580968,
      "componentType": 5126,
      "count": 1949,
      "max": [
        0.8965935111045837,
        0.99755859375
      ],
      "min": [
        0.00244140625,
        0.33539825677871704
      ],
      "type": "VEC2"
    },
    {
      "bufferView": 1,
      "byteOffset": 1596560,
      "componentType": 5126,
      "count": 1949,
      "max": [
        0.8965935111045837,
        0.99755859375
      ],
      "min": [
        0.00244140625,
        0.33539825677871704
      ],
      "type": "VEC2"
    },
    {
      "bufferView": 0,
      "byteOffset": 1120536,
      "componentType": 5125,
      "count": 8688,
      "type": "SCALAR"
    },
    {
      "bufferView": 2,
      "byteOffset": 1612152,
      "componentType": 5126,
      "count": 65532,
      "max": [
        20.837657928466797,
        22.648591995239258,
        139.84963989257813
      ],
      "min": [
        -0.640663206577301,
        -80.10986328125,
        -24.353792190551758
      ],
      "type": "VEC3"
    },
    {
      "bufferView": 2,
      "byteOffset": 2398536,
      "componentType": 5126,
      "count": 65532,
      "max": [
        1.0,
        1.0,
        1.0
      ],
      "min": [
        -1.0,
        -1.0,
        -1.0
      ],
      "type": "VEC3"
    },
    {
      "bufferView": 1,
      "byteOffset": 1612152,
      "componentType": 5126,
      "count": 65532,
      "max": [
        0.9984377026557922,
        0.9994999766349792
      ],
      "min": [
        0.0005000000237487257,
        0.0004999637603759766
      ],
      "type": "VEC2"
    },
    {
      "bufferView": 1,
      "byteOffset": 2136408,
      "componentType": 5126,
      "count": 65532,
      "max": [
        0.9984377026557922,
        0.9994999766349792
      ],
      "min": [
        0.0005000000237487257,
        0.0004999637603759766
      ],
      "type": "VEC2"
    },
    {
      "bufferView": 1,
      "byteOffset": 2660664,
      "componentType": 5126,
      "count": 65532,
      "max": [
        0.9984377026557922,
        0.9994999766349792
      ],
      "min": [
        0.0005000000237487257,
        0.0004999637603759766
      ],
      "type": "VEC2"
    },
    {
      "bufferView": 0,
      "byteOffset": 1155288,
      "componentType": 5125,
      "count": 281175,
      "type": "SCALAR"
    },
    {
      "bufferView": 2,
      "byteOffset": 3184920,
      "componentType": 5126,
      "count": 42382,
      "max": [
        37.72019577026367,
        7.325035095214844,
        139.7745361328125
      ],
      "min": [
        -27.088321685791016,
        -123.59658813476563,
        -7.3350372314453125
      ],
      "type": "VEC3"
    },
    {
      "bufferView": 2,
      "byteOffset": 3693504,
      "componentType": 5126,
      "count": 42382,
      "max": [
        1.0,
        1.0,
        1.0
      ],
      "min": [
        -1.0,
        -1.0,
        -1.0
      ],
      "type": "VEC3"
    },
    {
      "bufferView": 1,
      "byteOffset": 3184920,
      "componentType": 5126,
      "count": 42382,
      "max": [
        0.9975545406341553,
        0.9994999766349792
      ],
      "min": [
        0.0005000000237487257,
        0.0005571246147155762
      ],
      "type": "VEC2"
    },
    {
      "bufferView": 1,
      "byteOffset": 3523976,
      "componentType": 5126,
      "count": 42382,
      "max": [
        0.9975545406341553,
        0.9994999766349792
      ],
      "min": [
        0.0005000000237487257,
        0.0005571246147155762
      ],
      "type": "VEC2"
    },
    {
      "bufferView": 1,
      "byteOffset": 3863032,
      "componentType": 5126,
      "count": 42382,
      "max": [
        0.9975545406341553,
        0.9994999766349792
      ],
      "min": [
        0.0005000000237487257,
        0.0005571246147155762
      ],
      "type": "VEC2"
    },
    {
      "bufferView": 0,
      "byteOffset": 2279988,
      "componentType": 5125,
      "count": 171273,
      "type": "SCALAR"
    }
  ],
  "asset": {
    "extras": {
      "author": "moriyork (https://sketchfab.com/moriyork)",
      "license": "CC-BY-4.0 (http://creativecommons.org/licenses/by/4.0/)",
      "source": "https://sketchfab.com/3d-models/robot-arm-9df6da13eea144a9ba8f00026887ac53",
      "title": "Robot Arm"
    },
    "generator": "Sketchfab-13.31.0",
    "version": "2.0"
  },
  "bufferViews": [
    {
      "buffer": 0,
      "byteLength": 2965080,
      "name": "floatBufferViews",
      "target": 34963
    },
    {
      "buffer": 0,
      "byteLength": 4202088,
      "byteOffset": 2965080,
      "byteStride": 8,
      "name": "floatBufferViews",
      "target": 34962
    },
    {
      "buffer": 0,
      "byteLength": 4202088,
      "byteOffset": 7167168,
      "byteStride": 12,
      "name": "floatBufferViews",
      "target": 34962
    }
  ],
  "buffers": [
    {
      "byteLength": 11369256,
      "uri": "scene.bin"
    }
  ],
  "images": [
    {
      "uri": "textures/su_1_baseColor.png"
    },
    {
      "uri": "textures/su_1_metallicRoughness.png"
    },
    {
      "uri": "textures/orange_baseColor.jpeg"
    },
    {
      "uri": "textures/orange_metallicRoughness.png"
    },
    {
      "uri": "textures/black_baseColor.png"
    },
    {
      "uri": "textures/black_metallicRoughness.png"
    }
  ],
  "materials": [
    {
      "doubleSided": true,
      "name": "su_1",
      "pbrMetallicRoughness": {
        "baseColorTexture": {
          "index": 0
        },
        "metallicRoughnessTexture": {
          "index": 1,
          "texCoord": 1
        },
        "roughnessFactor": 0.161877
      }
    },
    {
      "doubleSided": true,
      "name": "orange",
      "pbrMetallicRoughness": {
        "baseColorTexture": {
          "index": 2
        },
        "metallicRoughnessTexture": {
          "index": 3
        }
      }
    },
    {
      "doubleSided": true,
      "name": "black",
      "pbrMetallicRoughness": {
        "baseColorTexture": {
          "index": 4
        },
        "metallicRoughnessTexture": {
          "index": 5
        }
      }
    }
  ],
  "meshes": [
    {
      "name": "Object_0",
      "primitives": [
        {
          "attributes": {
            "NORMAL": 1,
            "POSITION": 0,
            "TEXCOORD_0": 2,
            "TEXCOORD_1": 3,
            "TEXCOORD_2": 4
          },
          "indices": 5,
          "material": 0,
          "mode": 4
        }
      ]
    },
    {
      "name": "Object_1",
      "primitives": [
        {
          "attributes": {
            "NORMAL": 7,
            "POSITION": 6,
            "TEXCOORD_0": 8,
            "TEXCOORD_1": 9,
            "TEXCOORD_2": 10
          },
          "indices": 11,
          "material": 1,
          "mode": 4
        }
      ]
    },
    {
      "name": "Object_2",
      "primitives": [
        {
          "attributes": {
            "NORMAL": 13,
            "POSITION": 12,
            "TEXCOORD_0": 14,
            "TEXCOORD_1": 15,
            "TEXCOORD_2": 16
          },
          "indices": 17,
          "material": 2,
          "mode": 4
        }
      ]
    },
    {
      "name": "Object_3",
      "primitives": [
        {
          "attributes": {
            "NORMAL": 19,
            "POSITION": 18,
            "TEXCOORD_0": 20,
            "TEXCOORD_1": 21,
            "TEXCOORD_2": 22
          },
          "indices": 23,
          "material": 0,
          "mode": 4
        }
      ]
    },
    {
      "name": "Object_4",
      "primitives": [
        {
          "attributes": {
            "NORMAL": 25,
            "POSITION": 24,
            "TEXCOORD_0": 26,
            "TEXCOORD_1": 27,
            "TEXCOORD_2": 28
          },
          "indices": 29,
          "material": 0,
          "mode": 4
        }
      ]
    },
    {
      "name": "Object_5",
      "primitives": [
        {
          "attributes": {
            "NORMAL": 31,
            "POSITION": 30,
            "TEXCOORD_0": 32,
            "TEXCOORD_1": 33,
            "TEXCOORD_2": 34
          },
          "indices": 35,
          "material": 0,
          "mode": 4
        }
      ]
    }
  ],
  "nodes": [
    {
      "children": [
        1
      ],
      "matrix": [
        1.0,
        0.0,
        0.0,
        0.0,
        0.0,
        2.220446049250313e-16,
        -1.0,
        0.0,
        0.0,
        1.0,
        2.220446049250313e-16,
        0.0,
        0.0,
        0.0,
        0.0,
        1.0
      ],
      "name": "Sketchfab_model"
    },
    {
      "children": [
        2
      ],
      "name": "root"
    },
    {
      "children": [
        3
      ],
      "matrix": [
        1.0,
        0.0,
        0.0,
        0.0,
        0.0,
        2.220446049250313e-16,
        1.0,
        0.0,
        0.0,
        -1.0,
        2.220446049250313e-16,
        0.0,
        0.0,
        0.0,
        0.0,
        1.0
      ],
      "name": "GLTF_SceneRootNode"
    },
    {
      "children": [
        4,
        6,
        8,
        11
      ],
      "matrix": [
        0.009999999776482582,
        0.0,
        0.0,
        0.0,
        0.0,
        0.009999999776482582,
        0.0,
        0.0,
        0.0,
        0.0,
        0.009999999776482582,
        0.0,
        -3.6119816303253174,
        0.7445457577705383,
        0.6714147925376892,
        1.0
      ],
      "name": "Group001_4"
    },
    {
      "children": [
        5
      ],
      "matrix": [
        -9.407390733073839e-08,
        -5.646608569609413e-09,
        0.9999999999999956,
        0.0,
        -0.8660254199391855,
        0.4999999720191506,
        -7.864709106186751e-08,
        0.0,
        -0.4999999720191481,
        -0.8660254199391889,
        -5.1927057542755506e-08,
        0.0,
        -50.89874267578125,
        62.80305480957031,
        5.202766418457031,
        1.0
      ],
      "name": "aida_0"
    },
    {
      "mesh": 0,
      "name": "Object_5"
    },
    {
      "children": [
        7
      ],
      "matrix": [
        -1.685873969314855e-07,
        0.0,
        0.9999999999999858,
        0.0,
        -0.0,
        1.0,
        0.0,
        0.0,
        -0.9999999999999858,
        -0.0,
        -1.685873969314855e-07,
        0.0,
        -6.713531494140625,
        -15.622177124023438,
        -5.2250213623046875,
        1.0
      ],
      "name": "base_1"
    },
    {
      "mesh": 1,
      "name": "Object_7"
    },
    {
      "children": [
        9,
        10
      ],
      "matrix": [
        -0.9999999999986815,
        -1.1483816376077138e-06,
        -1.148381444005059e-06,
        0.0,
        1.1483816376077138e-06,
        -1.6858673768105348e-07,
        -0.9999999999993265,
        0.0,
        1.148381444005059e-06,
        -0.9999999999993265,
        1.6858805629293983e-07,
        0.0,
        34.338134765625,
        9.700729370117188,
        -0.13196924328804016,
        1.0
      ],
      "name": "himo_2"
    },
    {
      "mesh": 2,
      "name": "Object_9"
    },
    {
      "mesh": 3,
      "name": "Object_10"
    },
    {
      "children": [
        12,
        13
      ],
      "matrix": [
        -1.685873969314855e-07,
        0.0,
        0.9999999999999858,
        0.0,
        0.0,
        1.0,
        0.0,
        0.0,
        -0.9999999999999858,
        0.0,
        -1.685873969314855e-07,
        0.0,
        49.42266845703125,
        51.28324890136719,
        -5.3159332275390625,
        1.0
      ],
      "name": "metals_3"
    },
    {
      "mesh": 4,
      "name": "Object_12"
    },
    {
      "mesh": 5,
      "name": "Object_13"
    }
  ],
  "samplers": [
    {
      "magFilter": 9729,
      "minFilter": 9987,
      "wrapS": 10497,
      "wrapT": 10497
    }
  ],
  "scene": 0,
  "scenes": [
    {
      "name": "Sketchfab_Scene",
      "nodes": [
        0
      ]
    }
  ],
  "textures": [
    {
      "sampler": 0,
      "source": 0
    },
    {
      "sampler": 0,
      "source": 1
    },
    {
      "sampler": 0,
      "source": 2
    },
    {
      "sampler": 0,
      "source": 3
    },
    {
      "sampler": 0,
      "source": 4
    },
    {
      "sampler": 0,
      "source": 5
    }
  ]
}
